# xmcd
#
# Track frame offsets:
#	150
#	15618
#	29535
#	47647
#	67668
#	83541
#	98516
#	113677
#	134312
#	145992
#	163754
#	178612
#	191356
#	210136
#	230933
#	251751
#
# Disc length: 3586 seconds
#
# Revision: 0
# Processed by: cddbd v1.5.2PL0 Copyright (c) Steve Scherf et al.
# Submitted via: EasyCDDAExtractor 2010.6.0.0
#
DISCID=cb0e0010
DTITLE=Various Artist - Hott Country 25
DYEAR=1900
DGENRE=Country
TTITLE0=Jackson,Alan - A House With No Curtains
TTITLE1=Adkins,Trace - Lonely Wont Leave Me Alone
TTITLE2=Mccready,Mindy - Youll Never Know
TTITLE3=Sons Of The Desert - Leaving October Behind
TTITLE4=Anderson,John - Takin The Country Back
TTITLE5=Peterson,Michael - Too Good To Be True
TTITLE6=Lonestar - Say When
TTITLE7=Loveless,Patty - To Have You Back Again
TTITLE8=Austin,Sherrie - Put Your Heart Into It
TTITLE9=Keith,Toby - Dream Walkin
TTITLE10=Alabama - Shes Got That Look In Her Eyes
TTITLE11=Steele,Duane - If I Could Just Get To You
TTITLE12=Major,Charlie - Some Days Are Better
TTITLE13=Parnell,Lee Roy - All That Matters Anymore
TTITLE14=Ricochet - Connected At The Heart
TTITLE15=Lee,Scooter - In The Name Of Love
EXTD=
EXTT0=
EXTT1=
EXTT2=
EXTT3=
EXTT4=
EXTT5=
EXTT6=
EXTT7=
EXTT8=
EXTT9=
EXTT10=
EXTT11=
EXTT12=
EXTT13=
EXTT14=
EXTT15=
PLAYORDER=
